<svg width="1025" height="785" viewBox="0 0 1025 785" fill="none" xmlns="http://www.w3.org/2000/svg">
<g id="undraw_electric_car_b7hl 1" clip-path="url(#clip0)">
<g id="car">
<path id="Vector" opacity="0.9" d="M174.802 115.452C169.322 122.102 167.212 131.452 164.852 140.242C145.852 211.082 99.0321 268.062 45.7121 308.762C23.1321 326.002 -4.35794 349.122 0.582064 380.032C3.24206 396.632 14.9121 408.852 23.5821 422.372C41.7721 450.682 47.6721 489.162 39.0021 523.052C29.1421 561.612 1.58206 597.592 10.1121 636.582C15.3721 660.582 33.2321 677.662 50.4021 692.342C77.1887 715.229 104.829 736.669 133.322 756.662C152.422 770.062 172.742 783.102 195.002 784.802C214.602 786.302 233.802 778.852 252.412 771.502C268.672 765.072 285.342 758.382 298.472 745.502C307.042 737.092 313.872 726.242 323.392 719.362C345.752 703.202 374.472 713.442 400.112 720.362C460.612 736.602 525.362 730.672 582.932 703.622C671.242 662.122 738.552 574.972 824.932 528.212C862.072 508.102 902.472 495.622 936.862 469.722C956.237 454.976 972.887 436.958 986.062 416.482C1012.06 376.372 1026.12 325.232 1022.06 275.172C1018 225.112 995.252 176.872 959.522 148.612C921.272 118.362 872.962 112.712 829.442 94.5523C784.522 75.7723 744.542 43.5123 700.052 23.4023C664.029 7.15578 624.825 -0.817973 585.318 0.0662754C545.81 0.950523 507.002 10.6703 471.742 28.5123C423.292 53.0123 374.202 110.172 320.242 114.512C281.802 117.512 204.822 79.0323 174.802 115.452Z" fill="url(#paint0_linear)"/>
<path id="Vector_2" d="M838.16 316.49C843.03 320.09 863.69 321.72 863.69 321.72C863.69 321.72 856.09 302.45 851.21 298.84C850.066 297.828 848.724 297.066 847.27 296.601C845.815 296.136 844.28 295.98 842.761 296.141C841.243 296.302 839.774 296.778 838.45 297.537C837.125 298.297 835.973 299.324 835.067 300.554C834.161 301.783 833.521 303.187 833.188 304.677C832.854 306.168 832.835 307.711 833.13 309.209C833.426 310.707 834.03 312.127 834.905 313.379C835.779 314.631 836.905 315.687 838.21 316.48L838.16 316.49Z" fill="#6C63FF"/>
<path id="Vector_3" opacity="0.1" d="M838.16 316.49C843.03 320.09 863.69 321.72 863.69 321.72C863.69 321.72 856.09 302.45 851.21 298.84C850.066 297.828 848.724 297.066 847.27 296.601C845.815 296.136 844.28 295.98 842.761 296.141C841.243 296.302 839.774 296.778 838.45 297.537C837.125 298.297 835.973 299.324 835.067 300.554C834.161 301.783 833.521 303.187 833.188 304.677C832.854 306.168 832.835 307.711 833.13 309.209C833.426 310.707 834.03 312.127 834.905 313.379C835.779 314.631 836.905 315.687 838.21 316.48L838.16 316.49Z" fill="#6C63FF"/>
<path id="Vector_4" d="M959.35 336.18C953.94 338.91 933.35 337.02 933.35 337.02C933.35 337.02 944.1 319.31 949.51 316.58C950.807 315.801 952.25 315.299 953.75 315.103C955.25 314.907 956.775 315.023 958.228 315.444C959.681 315.864 961.032 316.579 962.196 317.545C963.36 318.511 964.313 319.707 964.994 321.057C965.675 322.408 966.07 323.885 966.155 325.395C966.24 326.905 966.012 328.417 965.486 329.835C964.96 331.253 964.147 332.548 963.098 333.638C962.05 334.728 960.787 335.59 959.39 336.17L959.35 336.18Z" fill="#6C63FF"/>
<path id="Vector_5" d="M948.98 379.49C944.11 383.09 923.45 384.72 923.45 384.72C923.45 384.72 931.05 365.45 935.93 361.84C938.278 360.413 941.076 359.917 943.772 360.449C946.468 360.981 948.867 362.503 950.497 364.715C952.128 366.927 952.871 369.669 952.581 372.402C952.291 375.134 950.988 377.659 948.93 379.48L948.98 379.49Z" fill="#6C63FF"/>
<path id="Vector_6" d="M903.56 344.62C908.97 347.35 929.56 345.46 929.56 345.46C929.56 345.46 918.81 327.75 913.4 325.02C910.835 323.955 907.962 323.9 905.358 324.865C902.754 325.831 900.611 327.746 899.361 330.226C898.11 332.706 897.844 335.567 898.615 338.235C899.387 340.903 901.139 343.18 903.52 344.61L903.56 344.62Z" fill="#6C63FF"/>
<path id="Vector_7" d="M899.16 395.49C904.03 399.09 924.69 400.72 924.69 400.72C924.69 400.72 917.09 381.45 912.21 377.84C911.066 376.828 909.724 376.066 908.27 375.601C906.815 375.136 905.28 374.98 903.761 375.141C902.243 375.302 900.774 375.778 899.45 376.537C898.125 377.297 896.973 378.324 896.067 379.554C895.161 380.783 894.521 382.187 894.188 383.677C893.854 385.168 893.835 386.711 894.13 388.209C894.426 389.707 895.03 391.127 895.905 392.379C896.779 393.631 897.905 394.687 899.21 395.48L899.16 395.49Z" fill="#6C63FF"/>
<path id="Vector_8" opacity="0.1" d="M959.35 336.18C953.94 338.91 933.35 337.02 933.35 337.02C933.35 337.02 944.1 319.31 949.51 316.58C950.807 315.801 952.25 315.299 953.75 315.103C955.25 314.907 956.775 315.023 958.228 315.444C959.681 315.864 961.032 316.579 962.196 317.545C963.36 318.511 964.313 319.707 964.994 321.057C965.675 322.408 966.07 323.885 966.155 325.395C966.24 326.905 966.012 328.417 965.486 329.835C964.96 331.253 964.147 332.548 963.098 333.638C962.05 334.728 960.787 335.59 959.39 336.17L959.35 336.18Z" fill="#6C63FF"/>
<path id="Vector_9" opacity="0.1" d="M948.98 379.49C944.11 383.09 923.45 384.72 923.45 384.72C923.45 384.72 931.05 365.45 935.93 361.84C938.278 360.413 941.076 359.917 943.772 360.449C946.468 360.981 948.867 362.503 950.497 364.715C952.128 366.927 952.871 369.669 952.581 372.402C952.291 375.134 950.988 377.659 948.93 379.48L948.98 379.49Z" fill="#6C63FF"/>
<path id="Vector_10" opacity="0.1" d="M903.56 344.62C908.97 347.35 929.56 345.46 929.56 345.46C929.56 345.46 918.81 327.75 913.4 325.02C910.835 323.955 907.962 323.9 905.358 324.865C902.754 325.831 900.611 327.746 899.361 330.226C898.11 332.706 897.844 335.567 898.615 338.235C899.387 340.903 901.139 343.18 903.52 344.61L903.56 344.62Z" fill="#6C63FF"/>
<path id="Vector_11" opacity="0.1" d="M899.16 395.49C904.03 399.09 924.69 400.72 924.69 400.72C924.69 400.72 917.09 381.45 912.21 377.84C911.066 376.828 909.724 376.066 908.27 375.601C906.815 375.136 905.28 374.98 903.761 375.141C902.243 375.302 900.774 375.778 899.45 376.537C898.125 377.297 896.973 378.324 896.067 379.554C895.161 380.783 894.521 382.187 894.188 383.677C893.854 385.168 893.835 386.711 894.13 388.209C894.426 389.707 895.03 391.127 895.905 392.379C896.779 393.631 897.905 394.687 899.21 395.48L899.16 395.49Z" fill="#6C63FF"/>
<path id="Vector_12" opacity="0.1" d="M539.943 591.41C811.561 564.922 1028.29 508.005 1024.03 464.284C1019.77 420.563 796.12 406.593 524.503 433.082C252.885 459.57 36.1523 516.487 40.4161 560.208C44.6799 603.929 268.326 617.899 539.943 591.41Z" fill="#6C63FF"/>
<path id="Vector_13" d="M981.23 471.25C999.72 433.35 995.9 371.66 993.93 350.72C993.5 346.14 993.16 343.51 993.16 343.51C993.16 343.51 976.86 340.94 982.87 321.21C985.81 311.55 975.37 306.21 963.97 303.28C955.819 301.331 947.502 300.155 939.13 299.77L781.24 290.02C759.59 255.66 716.99 261.18 716.99 261.18C716.99 261.18 678.99 257.23 652.05 256.82C647.961 253.218 643.48 250.088 638.69 247.49C635.836 245.775 632.797 244.389 629.63 243.36C625.78 242.249 621.724 242.055 617.786 242.793C613.847 243.531 610.136 245.181 606.95 247.61C605.397 248.727 604.132 250.198 603.26 251.9C602.924 252.674 602.673 253.482 602.51 254.31C602.104 255.722 601.77 257.154 601.51 258.6C601.276 259.296 600.938 259.953 600.51 260.55C599.43 262.08 597.57 263.23 597.33 265.08C597.324 265.187 597.324 265.293 597.33 265.4C597.132 265.753 597 266.14 596.94 266.54C596.868 267.363 597.046 268.189 597.45 268.91C597.51 269.03 597.58 269.14 597.65 269.25C596.321 271.175 595.236 273.257 594.42 275.45C594.05 275.651 593.693 275.875 593.35 276.12L593.05 276.34V276.95L592.88 277.08L592.51 286.93L592.72 287.09C593.023 291.685 594.409 296.143 596.766 300.099C599.123 304.055 602.383 307.396 606.28 309.85C606.41 310.48 606.53 311.12 606.65 311.79C607.199 315.02 607.447 318.294 607.39 321.57H607.22C602.52 319.57 594.48 322.51 587.57 325.94H498.05C515.51 303.48 536.87 286.06 536.87 286.06V266.32C521.61 265.56 387.55 329.96 358.16 344.18L356.86 344.81L205.81 349.49C178.45 349.32 154.53 353.34 133.81 359.89C99.1857 370.766 68.0716 390.644 43.65 417.49C25.81 437.07 17.99 453.25 17.99 453.25L18.16 454.61L17.99 454.96L18.23 455.17L22.3 487.29L25.1 509.39C5.64003 521.97 30.85 527.01 30.85 527.01C54.85 547.59 93.46 546.74 93.46 546.74C102.89 559.61 130.34 557.89 130.34 557.89H274.43C276.674 544.661 279.679 531.573 283.43 518.69C289.58 562.98 324.53 596.91 366.71 596.91C369.839 596.908 372.964 596.718 376.07 596.34C379.176 596.718 382.301 596.908 385.43 596.91C428.1 596.91 463.36 562.18 468.91 517.15H475.96C474.644 527.211 472.357 537.12 469.13 546.74C598.64 509 839.65 490.99 839.65 490.99C840.65 481.49 841.75 472.31 842.94 463.5C852.87 488.15 875.38 505.36 901.58 505.36C903.96 505.357 906.338 505.21 908.7 504.92C911.062 505.21 913.44 505.357 915.82 505.36C946.93 505.36 972.82 481.09 978.66 448.91C979.433 454.589 979.874 460.309 979.98 466.04C978.87 471.5 977.9 474.99 977.77 475.48C978.55 474.053 979.29 472.593 979.99 471.1C979.99 471.68 979.99 472.28 979.99 472.88C979.75 473.88 979.58 474.44 979.53 474.63L979.97 473.81C979.97 474.25 979.97 474.68 979.97 475.12C979.87 475.16 980.4 473.72 981.23 471.25Z" fill="url(#paint1_linear)"/>
<path id="Vector_14" d="M966.12 335.07H669.22V454.84H966.12V335.07Z" fill="#6F7D95"/>
<path id="Vector_15" d="M593.73 278.98L635.9 373.45L719.41 368.39L722.78 329.59L725.31 284.04L607.23 275.6L593.73 278.98Z" fill="#4B5C7A"/>
<path id="Vector_16" d="M593.73 278.98C593.73 278.98 609.73 263.8 629.16 260.42C648.59 257.04 713.51 263.79 713.51 263.79L722.79 279.79L721.05 287.41L593.73 278.98Z" fill="#FF4D52"/>
<path id="Vector_17" d="M752.72 327.48H453.29V415.2H752.72V327.48Z" fill="#4B5C7A"/>
<path id="Vector_18" d="M679.05 387.16C686.96 360.71 671.19 343.33 671.19 343.33L645.05 325.09C645.028 325.152 645.001 325.212 644.97 325.27C641.57 321.286 639.137 316.57 637.86 311.49C637.78 311.17 637.71 310.84 637.63 310.49C640.02 308.715 642.112 306.571 643.83 304.14C648.09 301.53 649.99 297.33 650.71 293.14C653.45 289.073 655.633 284.657 657.2 280.01C657.459 279.258 657.679 278.494 657.86 277.72C658.364 276.279 658.588 274.755 658.52 273.23C658.307 271.532 657.742 269.897 656.86 268.43C652.46 260.43 644.54 254.86 636.51 250.32C633.703 248.634 630.714 247.272 627.6 246.26C623.815 245.169 619.826 244.978 615.954 245.704C612.082 246.43 608.433 248.052 605.3 250.44C603.772 251.539 602.528 252.985 601.67 254.66C601.339 255.421 601.091 256.216 600.93 257.03C600.542 258.42 600.225 259.828 599.98 261.25C599.762 261.929 599.445 262.573 599.04 263.16C597.97 264.66 596.15 265.79 595.91 267.62C595.904 267.727 595.904 267.833 595.91 267.94C595.717 268.287 595.588 268.667 595.53 269.06C595.456 269.869 595.63 270.682 596.03 271.39C596.09 271.51 596.16 271.62 596.23 271.73C594.921 273.624 593.853 275.673 593.05 277.83C592.683 278.028 592.329 278.249 591.99 278.49L591.7 278.7V279.3L591.53 279.43L591.16 289.12L591.36 289.28C591.655 293.8 593.017 298.185 595.334 302.077C597.651 305.969 600.857 309.256 604.69 311.67C604.82 312.29 604.94 312.92 605.05 313.58C605.654 317.069 605.895 320.611 605.77 324.15C605.731 323.845 605.731 323.535 605.77 323.23C598.54 319.96 582.77 329 576.42 333C575.457 333.456 574.56 334.038 573.75 334.73L573.64 334.81C569.27 338.35 560.64 348.19 553.79 373.48C544.29 408.77 545.28 416.77 538.36 424.95C531.44 433.13 524.57 490.76 524.57 490.76L538.5 494.51L540.28 488.79C556.84 503.89 603.21 511.16 603.21 511.16L604.63 506.75C611.74 509.31 623.63 505.42 623.63 505.42C641.01 499.28 647.52 483.7 660.13 463.15C672.74 442.6 679.05 387.16 679.05 387.16ZM608.95 493.49L641.05 393.92C643.96 409.38 631.12 433.73 629.98 449.65C629.27 459.89 617.35 480.24 608.95 493.49Z" fill="url(#paint2_linear)"/>
<path id="Vector_19" d="M649.11 282.39C649.11 282.39 654.7 303.68 638.11 307.39C621.52 311.1 632.45 297.82 632.45 297.82L648.45 282.23L649.11 282.39Z" fill="#472727"/>
<path id="Vector_20" d="M579.75 333.13C579.75 333.13 567.41 338.13 558.34 371.81C549.27 405.49 550.17 413.09 543.64 420.92C537.11 428.75 530.42 483.69 530.42 483.69L543.48 487.21L554.85 450.49L586.12 353.49L579.75 333.13Z" fill="#DDE0E4"/>
<path id="Vector_21" opacity="0.05" d="M579.75 333.13C579.75 333.13 567.41 338.13 558.34 371.81C549.27 405.49 550.17 413.09 543.64 420.92C537.11 428.75 530.42 483.69 530.42 483.69L543.48 487.21L554.85 450.49L586.12 353.49L579.75 333.13Z" fill="black"/>
<path id="Vector_22" d="M648.27 329.33C648.27 329.33 596.61 355.59 604.17 338.46C607.91 330 607.77 321.23 606.68 314.46C606.058 310.472 604.967 306.572 603.43 302.84C603.43 302.84 638.55 275.06 636.49 297.74C635.997 302.622 636.335 307.551 637.49 312.32C640.53 324.35 648.27 329.33 648.27 329.33Z" fill="#DB8B8B"/>
<path id="Vector_23" opacity="0.1" d="M637.49 312.36C634.168 315.028 630.261 316.872 626.09 317.741C621.919 318.61 617.601 318.479 613.49 317.36C611.086 316.713 608.781 315.741 606.64 314.47C606.018 310.482 604.927 306.582 603.39 302.85C603.39 302.85 638.51 275.07 636.45 297.75C635.966 302.644 636.318 307.584 637.49 312.36Z" fill="black"/>
<path id="Vector_24" d="M647.042 296.938C650.925 282.518 642.383 267.681 627.963 263.798C613.543 259.915 598.705 268.457 594.822 282.878C590.94 297.298 599.482 312.135 613.902 316.018C628.322 319.901 643.16 311.359 647.042 296.938Z" fill="#DB8B8B"/>
<path id="Vector_25" opacity="0.1" d="M607.35 276.72C606.608 277.173 605.782 277.472 604.922 277.598C604.062 277.724 603.185 277.675 602.345 277.453C601.504 277.232 600.717 276.843 600.031 276.31C599.344 275.776 598.772 275.11 598.35 274.35C597.979 273.672 597.819 272.899 597.89 272.13C598.12 270.39 599.84 269.31 600.89 267.87C602.52 265.54 602.21 262.35 603.39 259.76C604.202 258.178 605.374 256.808 606.81 255.76C609.733 253.475 613.154 251.915 616.795 251.206C620.436 250.496 624.194 250.659 627.76 251.68C630.678 252.632 633.476 253.917 636.1 255.51C643.62 259.8 651.03 265.05 655.1 272.68C655.925 274.08 656.449 275.636 656.64 277.25C656.685 278.993 656.379 280.728 655.74 282.35C654.236 286.832 652.141 291.092 649.51 295.02C648.63 293.927 647.525 293.037 646.27 292.41C645.636 292.111 644.925 292.018 644.235 292.145C643.546 292.273 642.915 292.614 642.43 293.12C641.56 294.23 641.03 296.35 639.71 295.85C638.85 295.53 638.86 294.34 638.9 293.42C639.08 289.42 636.9 285.65 633.97 282.95C631.04 280.25 627.41 278.47 623.83 276.72C621.26 275.46 617.83 272.57 615.01 272.06C611.51 271.41 609.86 275.17 607.35 276.72Z" fill="black"/>
<path id="Vector_26" d="M607.72 275.35C606.978 275.803 606.152 276.102 605.292 276.228C604.432 276.354 603.555 276.305 602.715 276.083C601.874 275.862 601.087 275.473 600.401 274.94C599.714 274.406 599.142 273.74 598.72 272.98C598.349 272.302 598.189 271.529 598.26 270.76C598.49 269.02 600.21 267.94 601.26 266.5C602.89 264.17 602.58 260.98 603.76 258.39C604.572 256.808 605.744 255.438 607.18 254.39C610.103 252.105 613.524 250.545 617.165 249.836C620.806 249.126 624.564 249.289 628.13 250.31C631.048 251.262 633.846 252.547 636.47 254.14C643.99 258.43 651.4 263.68 655.47 271.31C656.295 272.71 656.819 274.266 657.01 275.88C657.055 277.623 656.749 279.358 656.11 280.98C654.606 285.462 652.511 289.722 649.88 293.65C649 292.557 647.895 291.667 646.64 291.04C646.006 290.741 645.295 290.648 644.605 290.775C643.916 290.903 643.285 291.244 642.8 291.75C641.93 292.86 641.4 294.98 640.08 294.48C639.22 294.16 639.23 292.97 639.27 292.05C639.45 288.05 637.27 284.28 634.34 281.58C631.41 278.88 627.78 277.1 624.2 275.35C621.63 274.09 618.2 271.2 615.38 270.69C611.88 270.03 610.23 273.8 607.72 275.35Z" fill="#472727"/>
<path id="Vector_27" d="M621.88 332.91C621.88 332.91 643.27 328.72 644.2 325.29L668.66 342.56C668.66 342.56 683.38 359.05 675.85 384.29C675.85 384.29 669.72 437.18 657.8 456.81C645.88 476.44 639.03 501.87 622.7 507.81C622.7 507.81 607 497.69 601.82 497.81C601.82 497.81 628.41 459.28 629.55 444.11C630.69 428.94 642.84 405.68 640.18 390.96L604.18 502.86C604.18 502.86 546.18 493.86 540.3 474.61C540.3 474.61 545.3 467.1 544.37 459.49C543.44 451.88 566.25 394.63 566.25 394.63L577.17 334.93C577.17 334.93 598.77 319.84 607.37 323.76C607.33 323.7 605.77 331.15 621.88 332.91Z" fill="#DDE0E4"/>
<g id="Group" opacity="0.1">
<path id="Vector_28" opacity="0.1" d="M629.67 286.49C624.39 279.29 614.32 285.2 612.67 286.23L610.08 285.97C607.82 283.51 600.89 276.97 594.38 281.78L594.1 281.99L593.71 291.22L593.99 291.44C595.87 292.892 598.003 293.983 600.28 294.66C601.722 295.084 603.243 295.159 604.72 294.88C605.813 294.628 606.837 294.139 607.719 293.448C608.602 292.757 609.323 291.88 609.83 290.88L611.18 290.97L612.18 290.78C612.38 291.843 612.805 292.852 613.426 293.738C614.046 294.625 614.849 295.368 615.78 295.92C620.25 298.45 626.78 295.92 627.05 295.87L627.39 295.74L629.79 286.81L629.67 286.49ZM626.28 294.61C624.95 295.06 619.93 296.54 616.56 294.61C615.721 294.084 615.014 293.372 614.494 292.53C613.974 291.687 613.654 290.736 613.56 289.75L613.44 289.02L611.25 289.47L609.05 289.39L608.84 289.81C608.439 290.718 607.834 291.523 607.073 292.161C606.312 292.799 605.415 293.253 604.45 293.49C600.68 294.3 596.32 291.38 595.18 290.55L595.51 282.75C601.17 278.94 607.41 285.12 609.21 287.14L609.4 287.35L613.05 287.71L613.27 287.56C613.37 287.5 622.44 281.41 627.61 286.31C627.866 286.548 628.104 286.805 628.32 287.08L626.28 294.61Z" fill="black"/>
<path id="Vector_29" opacity="0.1" d="M646.05 291.13L629.05 289.72L627.65 289.45L628.28 287.09C628.064 286.815 627.826 286.558 627.57 286.32L629.63 286.52L643.54 287.88L646.05 291.13Z" fill="black"/>
</g>
<path id="Vector_30" d="M629.85 285.85C624.57 278.65 614.5 284.56 612.85 285.59L610.26 285.33C608 282.87 601.07 276.33 594.56 281.14L594.28 281.35L593.89 290.58L594.17 290.8C596.05 292.252 598.183 293.343 600.46 294.02C601.902 294.444 603.423 294.519 604.9 294.24C605.993 293.988 607.017 293.499 607.899 292.808C608.782 292.117 609.503 291.24 610.01 290.24L611.36 290.33L612.36 290.14C612.56 291.203 612.985 292.212 613.606 293.098C614.226 293.985 615.029 294.728 615.96 295.28C620.43 297.81 626.96 295.28 627.23 295.23L627.57 295.1L629.97 286.17L629.85 285.85ZM626.46 293.97C625.13 294.42 620.11 295.9 616.74 293.97C615.901 293.444 615.194 292.732 614.674 291.89C614.154 291.047 613.834 290.096 613.74 289.11L613.62 288.38L611.43 288.83L609.26 288.69L609.05 289.11C608.656 290.024 608.056 290.834 607.299 291.479C606.541 292.124 605.645 292.586 604.68 292.83C600.91 293.64 596.55 290.72 595.41 289.89L595.74 282.09C601.4 278.28 607.64 284.46 609.44 286.48L609.63 286.69L613.28 287.05L613.5 286.9C613.6 286.84 622.67 280.75 627.84 285.65C628.096 285.888 628.334 286.145 628.55 286.42L626.46 293.97Z" fill="#472727"/>
<path id="Vector_31" d="M646.21 290.49L629.27 289.08L627.87 288.81L628.5 286.45C628.284 286.175 628.046 285.918 627.79 285.68L629.85 285.88L643.76 287.24L646.21 290.49Z" fill="#472727"/>
<path id="Vector_32" d="M530.04 395.8H233.14V515.57H530.04V395.8Z" fill="#6F7D95"/>
<g id="car-p2">
<path id="Vector_33" d="M33.67 512.62L26.05 452.73H116.3L162.69 494.06L139.92 547.2C139.92 547.2 48.05 532.02 33.67 512.62Z" fill="#FF4D52"/>
<path id="Vector_34" opacity="0.05" d="M162.72 494.06L139.95 547.2C139.95 547.2 48.05 532.02 33.67 512.62L33.34 510.01L26.34 454.63L26.27 454.08L26.1 452.74H116.35L162.72 494.06Z" fill="black"/>
<path id="Vector_35" d="M536.38 268.86V288.26C536.38 288.26 489.74 326.26 478.64 362.11C476.702 367.931 475.971 374.087 476.49 380.2C480.71 419.84 355.05 348.14 355.05 348.14L360.64 345.42C389.53 331.49 521.37 268.1 536.38 268.86Z" fill="#7597CE"/>
<path id="Vector_36" d="M642.66 362.49C642.66 362.49 686.34 341.03 693.35 325.15C694.29 323.02 695.18 320.87 696.22 318.78C700.55 310.07 709.65 289.64 705.07 279.83C699.17 267.18 719.41 281.52 719.41 281.52L707.6 341.39L678.92 357.39L641.81 362.49" fill="#FF4D52"/>
<path id="Vector_37" opacity="0.05" d="M642.66 362.49C642.66 362.49 686.34 341.03 693.35 325.15C694.29 323.02 695.18 320.87 696.22 318.78C700.55 310.07 709.65 289.64 705.07 279.83C699.17 267.18 719.41 281.52 719.41 281.52L707.6 341.39L678.92 357.39L641.81 362.49" fill="black"/>
<path id="Vector_38" opacity="0.05" d="M162.72 494.06L139.95 547.2C139.95 547.2 48.05 532.02 33.67 512.62L33.34 510.01C33.71 509.76 34.1 509.5 34.51 509.25C34.51 509.25 62.34 531.18 125.61 536.25C125.61 536.25 163.61 505.88 101.99 472.15C101.99 472.15 48.39 473.83 26.31 454.64L26.07 454.44L26.24 454.09C26.3867 453.803 26.6233 453.357 26.95 452.75H116.32L162.72 494.06Z" fill="black"/>
<path id="Vector_39" opacity="0.05" d="M476.49 380.19C480.71 419.84 355.05 348.14 355.05 348.14L360.64 345.42C364.34 349.36 379.11 362.65 408.64 361.21C427.64 360.28 456.49 361.13 478.69 362.1C476.736 367.918 475.987 374.073 476.49 380.19V380.19Z" fill="black"/>
<path id="Vector_40" opacity="0.05" d="M530.05 395.8V515.57H474.89C478.53 487.71 476.43 447.1 441.05 423.82C427.854 415.195 412.532 410.382 396.775 409.912C381.017 409.443 365.436 413.335 351.75 421.16C328.56 434.4 302.63 461.32 286.15 515.57H233.15V395.8H530.05Z" fill="black"/>
<path id="Vector_41" opacity="0.05" d="M982.74 433.27C980.66 446.49 977.32 459.33 972.15 470.27C971.483 471.743 970.757 473.18 969.97 474.58C970.1 474.09 971.05 470.67 972.15 465.29C977.51 439.09 986.68 366.59 925.24 362.45C924.44 362.4 923.65 362.35 922.86 362.32C917.943 358.103 912.651 354.344 907.05 351.09H958.5C958.5 351.09 978.74 392.42 982.96 412.66C984.18 418.34 983.84 425.67 982.74 433.27Z" fill="black"/>
<path id="Vector_42" d="M971.64 473.76C972.44 470.87 1000.94 366.63 926.91 361.64C851.84 356.58 842.56 413.09 834.13 489.85C834.13 489.85 597.13 507.56 469.75 544.68C469.75 544.68 500.33 460.88 442.75 422.98C429.554 414.355 414.232 409.542 398.475 409.072C382.717 408.603 367.136 412.495 353.45 420.32C325.05 436.54 292.52 473.32 278.29 555.64H136.57C136.57 555.64 109.57 557.33 100.3 544.64C100.3 544.64 62.3 545.48 38.73 525.24C38.73 525.24 13.43 520.18 33.67 507.53C33.67 507.53 62.35 529.46 125.61 534.53C125.61 534.53 163.61 504.16 101.99 470.43C101.99 470.43 47.99 472.12 26.08 452.72C26.08 452.72 33.77 436.81 51.32 417.56C75.3241 391.155 105.91 371.599 139.95 360.89C162.887 353.799 186.794 350.351 210.8 350.67L359.67 346.03C359.67 346.03 374.05 364.59 408.59 362.9C443.13 361.21 510.65 365.43 510.65 365.43H511.32L650.24 359.14C654.229 358.577 658.175 357.742 662.05 356.64C682.19 351.17 720.39 334.58 713.5 288.25L931.96 301.75C940.194 302.128 948.373 303.284 956.39 305.2C967.61 308.08 977.87 313.34 974.98 322.84C969.08 342.24 985.1 344.77 985.1 344.77C985.1 344.77 985.44 347.36 985.86 351.86C987.86 373.08 991.79 436.88 971.64 473.76Z" fill="#FF4D52"/>
<path id="Vector_43" opacity="0.05" d="M140.79 361.74V384.41L64.05 419.84L52.17 418.41C76.1713 392.007 106.753 372.45 140.79 361.74V361.74Z" fill="black"/>
<path id="Vector_44" d="M139.94 360.9V383.57L63.19 418.99L51.31 417.56C75.3153 391.159 105.901 371.606 139.94 360.9V360.9Z" fill="#FFEC9F"/>
<path id="Vector_45" opacity="0.05" d="M248.75 463.7C248.75 463.7 207.42 489 203.2 544.7H226.82C226.82 544.7 236.1 483.97 263.09 463.7H248.75Z" fill="black"/>
<path id="Vector_46" opacity="0.05" d="M737.13 465.39L522.88 490.69C522.88 490.69 508.71 400.49 511.33 365.4L650.25 359.11C654.235 358.556 658.177 357.731 662.05 356.64V365.01L766.64 339.71C766.64 339.71 784.36 365.85 737.13 465.39Z" fill="black"/>
<path id="Vector_47" d="M713.51 263.79C713.51 263.79 759.06 257.89 779.3 296.69L714.16 294.18L713.51 263.79Z" fill="#FF4D52"/>
<path id="Vector_48" opacity="0.05" d="M776.14 310.29C774.35 315.9 775.7 322.07 786.07 326.34C794.7 329.9 804.82 325.78 807.77 316.93C809.49 311.77 808.31 305.93 799.01 301.18C789.71 296.43 779.27 300.49 776.14 310.29Z" fill="black"/>
<path id="Vector_49" d="M27.68 465.37C27.68 465.37 81.74 493.37 120.54 482.77" stroke="#FF4D52" stroke-miterlimit="10"/>
<path id="Vector_50" d="M29.59 480.49C29.59 480.49 64.52 507.43 135.12 501.17" stroke="#FF4D52" stroke-miterlimit="10"/>
<path id="Vector_51" d="M31.2 493.18C31.2 493.18 65.85 523.25 137.05 513.72" stroke="#FF4D52" stroke-miterlimit="10"/>
<path id="Vector_52" opacity="0.05" d="M776.69 292.16C776.69 292.16 748.51 316.49 722.79 327.49C722.79 327.49 761.85 334.44 776.69 292.16Z" fill="black"/>
<path id="Vector_53" opacity="0.1" d="M478.15 363.77C478.15 363.77 611.87 376.4 662.47 364.59C662.47 364.59 665.17 366.38 649.06 359.16L478.15 363.77Z" fill="black"/>
<path id="Vector_54" opacity="0.05" d="M985.87 351.86C977.54 346.39 964.33 335.04 966.13 322.41C967.03 316.08 962.55 310.16 956.4 305.19C967.62 308.07 977.88 313.33 974.99 322.83C969.09 342.23 985.11 344.76 985.11 344.76C985.11 344.76 985.44 347.36 985.87 351.86Z" fill="black"/>
<path id="Vector_55" opacity="0.05" d="M982.74 433.27C979.91 452.81 972.04 474.2 972.04 474.2C972.093 472.867 972.127 471.55 972.14 470.25C972.14 468.57 972.14 466.91 972.14 465.25C971.14 411.39 941.79 378.16 922.86 362.25C917.94 358.057 912.648 354.322 907.05 351.09H958.5C958.5 351.09 978.74 392.42 982.96 412.66C984.18 418.34 983.84 425.67 982.74 433.27Z" fill="black"/>
<path id="Vector_56" d="M982.74 433.27C979.91 452.81 972.04 474.2 972.04 474.2C972.093 472.867 972.127 471.55 972.14 470.25C972.14 468.57 972.14 466.91 972.14 465.25C971.14 411.39 941.79 378.16 922.86 362.25C917.94 358.057 912.648 354.322 907.05 351.09H958.5C958.5 351.09 978.74 392.42 982.96 412.66C984.18 418.34 983.84 425.67 982.74 433.27Z" fill="#FF4D52"/>
</g>
<g id="TESLA">
<g id="g8">
<path id="polyline10" d="M270.96 383.91V388.92H272.57V385.58H278.42V388.92H280.03V383.92L270.96 383.91Z" fill="#E82127"/>
<path id="path12" d="M272.4 382.29H278.58C278.985 382.193 279.356 381.987 279.652 381.694C279.948 381.402 280.158 381.034 280.26 380.63H270.73C270.833 381.033 271.043 381.401 271.339 381.693C271.635 381.986 272.006 382.192 272.41 382.29" fill="#E82127"/>
</g>
<g id="g14">
<path id="path16" d="M266.1 388.92C266.45 388.784 266.762 388.565 267.008 388.28C267.254 387.996 267.426 387.656 267.51 387.29H260.3V380.63H258.68V388.92H266.09" fill="#E82127"/>
</g>
<g id="g18">
<path id="path20" d="M246.68 382.26H252.39C252.797 382.158 253.171 381.955 253.478 381.67C253.786 381.385 254.017 381.027 254.15 380.63H245.05V385.49H252.47V387.21H246.65C246.206 387.328 245.792 387.538 245.435 387.828C245.078 388.118 244.787 388.48 244.58 388.89H254.05V383.89H246.64V382.25" fill="#E82127"/>
</g>
<g id="g22">
<path id="path24" d="M232.59 382.28H238.77C239.175 382.183 239.546 381.977 239.842 381.684C240.138 381.392 240.348 381.024 240.45 380.62H230.92C231.023 381.023 231.234 381.391 231.53 381.683C231.826 381.976 232.196 382.182 232.6 382.28" fill="#E82127"/>
<path id="path26" d="M232.59 385.55H238.77C239.175 385.454 239.547 385.248 239.843 384.956C240.139 384.663 240.349 384.294 240.45 383.89H230.92C231.023 384.293 231.234 384.661 231.53 384.953C231.826 385.246 232.196 385.452 232.6 385.55" fill="#E82127"/>
<path id="path28" d="M232.59 388.92H238.77C239.175 388.823 239.546 388.617 239.842 388.324C240.138 388.032 240.348 387.664 240.45 387.26H230.92C231.023 387.663 231.234 388.031 231.53 388.323C231.826 388.616 232.196 388.822 232.6 388.92" fill="#E82127"/>
</g>
<g id="g30">
<path id="path32" d="M216.52 380.64C216.626 381.039 216.836 381.403 217.13 381.693C217.423 381.983 217.79 382.189 218.19 382.29H220.79L220.92 382.34V388.9H222.54V382.34L222.69 382.29H225.29C225.689 382.186 226.054 381.979 226.347 381.69C226.64 381.4 226.852 381.038 226.96 380.64H216.52Z" fill="#E82127"/>
</g>
</g>
<g id="T">
<path id="path35" d="M251 456.761L259.11 411.131C266.84 411.131 269.28 411.981 269.64 415.441C269.64 415.441 274.83 413.511 277.44 409.581C270.981 406.681 264.04 405.003 256.97 404.631L250.97 411.921L244.97 404.631C237.9 405.003 230.959 406.681 224.5 409.581C227.11 413.511 232.3 415.441 232.3 415.441C232.65 411.981 235.09 411.131 242.77 411.121L250.95 456.761" fill="#E82127"/>
<path id="path37" d="M251 402.521C260.408 402.404 269.735 404.275 278.37 408.011C279.007 406.938 279.552 405.815 280 404.651C261.401 397.116 240.599 397.116 222 404.651C222.478 405.807 223.032 406.929 223.66 408.011C232.295 404.275 241.622 402.404 251.03 402.521" fill="#E82127"/>
</g>
<path id="Vector_57" opacity="0.1" d="M310.53 430.08C306.72 427.17 299.53 422.64 292.91 423.64L294.07 418.83C294.07 418.83 304.27 415.64 307.87 418.83C309.19 419.99 310.1 424.56 310.53 430.08Z" fill="black"/>
</g>
<g id="frontwheel">
<path id="Vector_58" d="M369.02 594.01C414.777 594.01 451.87 553.416 451.87 503.34C451.87 453.264 414.777 412.67 369.02 412.67C323.263 412.67 286.17 453.264 286.17 503.34C286.17 553.416 323.263 594.01 369.02 594.01Z" fill="#4B5C7A"/>
<path id="Vector_59" opacity="0.05" d="M369.02 594.01C414.777 594.01 451.87 553.416 451.87 503.34C451.87 453.264 414.777 412.67 369.02 412.67C323.263 412.67 286.17 453.264 286.17 503.34C286.17 553.416 323.263 594.01 369.02 594.01Z" fill="black"/>
<path id="Vector_60" d="M387.43 594.01C433.187 594.01 470.28 553.416 470.28 503.34C470.28 453.264 433.187 412.67 387.43 412.67C341.673 412.67 304.58 453.264 304.58 503.34C304.58 553.416 341.673 594.01 387.43 594.01Z" fill="#4B5C7A"/>
<path id="Vector_61" opacity="0.05" d="M385.59 540.62C405.925 540.62 422.41 524.135 422.41 503.8C422.41 483.465 405.925 466.98 385.59 466.98C365.255 466.98 348.77 483.465 348.77 503.8C348.77 524.135 365.255 540.62 385.59 540.62Z" fill="black"/>
<path id="Vector_62" d="M385.59 514.85C391.693 514.85 396.64 509.903 396.64 503.8C396.64 497.697 391.693 492.75 385.59 492.75C379.487 492.75 374.54 497.697 374.54 503.8C374.54 509.903 379.487 514.85 385.59 514.85Z" stroke="#6F7D95" stroke-width="2" stroke-miterlimit="10"/>
<path id="Vector_63" d="M385.59 487.23C387.114 487.23 388.35 485.994 388.35 484.47C388.35 482.946 387.114 481.71 385.59 481.71C384.066 481.71 382.83 482.946 382.83 484.47C382.83 485.994 384.066 487.23 385.59 487.23Z" fill="#6F7D95"/>
<path id="Vector_64" d="M402.467 491.914C403.635 490.934 403.787 489.193 402.807 488.026C401.827 486.858 400.086 486.706 398.919 487.686C397.751 488.665 397.599 490.406 398.579 491.574C399.558 492.742 401.299 492.894 402.467 491.914Z" fill="#6F7D95"/>
<path id="Vector_65" d="M409.057 505.279C409.322 503.778 408.319 502.346 406.818 502.082C405.317 501.817 403.886 502.819 403.621 504.321C403.356 505.822 404.358 507.253 405.86 507.518C407.361 507.783 408.792 506.78 409.057 505.279Z" fill="#6F7D95"/>
<path id="Vector_66" d="M399.828 521.154C401.149 520.392 401.601 518.704 400.839 517.384C400.077 516.063 398.389 515.611 397.068 516.373C395.748 517.136 395.296 518.824 396.058 520.144C396.82 521.464 398.508 521.916 399.828 521.154Z" fill="#6F7D95"/>
<path id="Vector_67" d="M385.297 522.648C385.818 521.215 385.08 519.632 383.647 519.11C382.215 518.589 380.631 519.328 380.11 520.76C379.588 522.192 380.327 523.776 381.759 524.297C383.192 524.819 384.776 524.08 385.297 522.648Z" fill="#6F7D95"/>
<path id="Vector_68" d="M371.268 514.124C372.7 513.603 373.438 512.019 372.917 510.586C372.396 509.154 370.812 508.416 369.38 508.937C367.947 509.458 367.209 511.042 367.73 512.474C368.251 513.907 369.835 514.645 371.268 514.124Z" fill="#6F7D95"/>
<path id="Vector_69" d="M372.555 496.881C373.317 495.561 372.865 493.873 371.545 493.111C370.225 492.349 368.537 492.801 367.775 494.121C367.012 495.442 367.465 497.13 368.785 497.892C370.105 498.654 371.793 498.202 372.555 496.881Z" fill="#6F7D95"/>
</g>
<g id="backwheel">
<path id="Vector_70" d="M895.02 503.98C929.819 503.98 958.03 473.106 958.03 435.02C958.03 396.934 929.819 366.06 895.02 366.06C860.221 366.06 832.01 396.934 832.01 435.02C832.01 473.106 860.221 503.98 895.02 503.98Z" fill="#4B5C7A"/>
<path id="Vector_71" opacity="0.05" d="M895.02 503.98C929.819 503.98 958.03 473.106 958.03 435.02C958.03 396.934 929.819 366.06 895.02 366.06C860.221 366.06 832.01 396.934 832.01 435.02C832.01 473.106 860.221 503.98 895.02 503.98Z" fill="black"/>
<path id="Vector_72" d="M909.02 503.98C943.819 503.98 972.03 473.106 972.03 435.02C972.03 396.934 943.819 366.06 909.02 366.06C874.221 366.06 846.01 396.934 846.01 435.02C846.01 473.106 874.221 503.98 909.02 503.98Z" fill="#4B5C7A"/>
<path id="Vector_73" opacity="0.05" d="M907.62 463.37C923.084 463.37 935.62 450.834 935.62 435.37C935.62 419.906 923.084 407.37 907.62 407.37C892.156 407.37 879.62 419.906 879.62 435.37C879.62 450.834 892.156 463.37 907.62 463.37Z" fill="black"/>
<path id="Vector_74" d="M907.62 443.77C912.259 443.77 916.02 440.009 916.02 435.37C916.02 430.731 912.259 426.97 907.62 426.97C902.981 426.97 899.22 430.731 899.22 435.37C899.22 440.009 902.981 443.77 907.62 443.77Z" stroke="#6F7D95" stroke-width="2" stroke-miterlimit="10"/>
<path id="Vector_75" d="M907.62 422.77C908.78 422.77 909.72 421.83 909.72 420.67C909.72 419.51 908.78 418.57 907.62 418.57C906.46 418.57 905.52 419.51 905.52 420.67C905.52 421.83 906.46 422.77 907.62 422.77Z" fill="#6F7D95"/>
<path id="Vector_76" d="M920.463 426.33C921.351 425.585 921.467 424.26 920.722 423.372C919.976 422.483 918.652 422.367 917.763 423.113C916.875 423.858 916.759 425.183 917.504 426.072C918.25 426.96 919.574 427.076 920.463 426.33Z" fill="#6F7D95"/>
<path id="Vector_77" d="M925.467 436.504C925.668 435.361 924.906 434.272 923.763 434.071C922.621 433.869 921.532 434.632 921.331 435.774C921.129 436.917 921.892 438.006 923.034 438.207C924.176 438.408 925.265 437.646 925.467 436.504Z" fill="#6F7D95"/>
<path id="Vector_78" d="M918.457 448.575C919.462 447.995 919.806 446.71 919.226 445.706C918.646 444.702 917.362 444.358 916.357 444.937C915.353 445.517 915.009 446.802 915.589 447.806C916.169 448.81 917.453 449.155 918.457 448.575Z" fill="#6F7D95"/>
<path id="Vector_79" d="M907.402 449.708C907.799 448.618 907.237 447.413 906.147 447.016C905.057 446.619 903.852 447.181 903.456 448.271C903.059 449.361 903.621 450.566 904.711 450.963C905.801 451.359 907.006 450.798 907.402 449.708Z" fill="#6F7D95"/>
<path id="Vector_80" d="M896.728 443.216C897.818 442.82 898.38 441.615 897.983 440.525C897.587 439.435 896.382 438.873 895.292 439.27C894.202 439.666 893.64 440.871 894.037 441.961C894.433 443.051 895.638 443.613 896.728 443.216Z" fill="#6F7D95"/>
<path id="Vector_81" d="M897.72 430.106C898.3 429.102 897.955 427.817 896.951 427.237C895.947 426.657 894.662 427.002 894.082 428.006C893.502 429.01 893.847 430.295 894.851 430.875C895.855 431.454 897.14 431.11 897.72 430.106Z" fill="#6F7D95"/>
</g>
</g>
<defs>
<linearGradient id="paint0_linear" x1="864.002" y1="85.0224" x2="177.002" y2="607.022" gradientUnits="userSpaceOnUse">
<stop offset="0.075188" stop-color="#63F6FF"/>
<stop offset="1" stop-color="#050221"/>
</linearGradient>
<linearGradient id="paint1_linear" x1="506.69" y1="596.95" x2="506.69" y2="242.37" gradientUnits="userSpaceOnUse">
<stop stop-color="#808080" stop-opacity="0.25"/>
<stop offset="0.54" stop-color="#808080" stop-opacity="0.12"/>
<stop offset="1" stop-color="#808080" stop-opacity="0.1"/>
</linearGradient>
<linearGradient id="paint2_linear" x1="69055" y1="174448" x2="87261.9" y2="106830" gradientUnits="userSpaceOnUse">
<stop stop-color="#808080" stop-opacity="0.25"/>
<stop offset="0.54" stop-color="#808080" stop-opacity="0.12"/>
<stop offset="1" stop-color="#808080" stop-opacity="0.1"/>
</linearGradient>
<clipPath id="clip0">
<rect width="1024.09" height="784.98" fill="white"/>
</clipPath>
</defs>
</svg>
