<?xml version="1.0" encoding="utf-8"?>
<!-- Generator: Adobe Illustrator 19.0.0, SVG Export Plug-In . SVG Version: 6.00 Build 0)  -->
<svg version="1.1" id="Layer_1" xmlns="http://www.w3.org/2000/svg" xmlns:xlink="http://www.w3.org/1999/xlink" x="0px" y="0px"
	 viewBox="0 0 96 96" style="enable-background:new 0 0 96 96;" xml:space="preserve">
<style type="text/css">
	.st0{fill:#C0392B;}
	.st1{fill:#ECF0F1;}
	.st2{fill:#95A5A6;}
	.st3{fill:#BDC3C7;}
	.st4{fill:#F39C12;}
</style>
<g id="XMLID_1_">
	<path id="XMLID_3_" class="st0" d="M37.2,58.8c-6.2,3-12.4,6-18.5,9.2c-2.4,1.4-3.3,4.3-3.1,7c0.1,1.6-0.5,3.8,1.2,4.9
		c1.6,0.8,3.5,0.3,5.2,0.5H78c2.1-0.3,2.6-2.4,2.4-4.1c0-2.7,0.2-5.4-1.8-7.3c-1.6-1.6-3.9-2.4-5.8-3.5c-4.7-2.2-9.4-4.6-14-6.8
		H37.2L37.2,58.8z"/>
	<path id="XMLID_4_" class="st1" d="M37.2,58.8c-0.9,0.3-1.7,0.8-2.6,1.4c0.5,5.1,6.3,9.5,13.4,9.5c7.2,0,13-4.3,13.4-9.7
		c-0.9-0.3-1.8-0.8-2.6-1.1H37.2z"/>
	<rect id="XMLID_5_" x="39.9" y="50.7" class="st2" width="16.2" height="13.5"/>
	<path id="XMLID_6_" class="st3" d="M48,15.5c-8,0-14.7,7.3-16,16.8c-0.3-0.1-0.6-0.2-0.9-0.1c-1.4,0.5-1.8,3.2-0.8,6
		c0.5,1.7,1.4,3,2.4,3.7c2.1,8.2,8.2,14.1,15.4,14.1c7.2,0,13.3-6,15.4-14.1c0.9-0.7,1.8-2.1,2.4-3.7c0.9-2.8,0.6-5.5-0.8-6
		c-0.3-0.1-0.6,0-0.9,0.1C62.7,22.8,56,15.5,48,15.5z"/>
	<path id="XMLID_7_" class="st4" d="M47.9,15.5c-5.5-0.3-10.7,3.5-13.5,8.7c-1.4,2.4-2.4,5.4-2.8,8.1c0.9-0.3,1.6,0.3,2.4-0.8
		c1.7-1.6,2.5-3,3.1-5.1c1.1-2.4,3.4-6.2,5.4-5.4c1.9,0.5,2.7,1.6,5.4,1.6c2.7,0,3.5-1.1,5.4-1.6c2-0.8,4.4,3,5.4,5.4
		c0.6,2.2,1.3,3.5,3,5.1c0.8,1.1,1.5,0.5,2.4,0.8c-0.4-2.7-1.4-5.7-2.8-8.1C58.6,19.1,53.5,15.3,47.9,15.5z"/>
	<path id="XMLID_8_" class="st2" d="M37.2,58.8c0,4.5,4.8,8.1,10.8,8.1c6,0,10.8-3.6,10.8-8.1H37.2z"/>
</g>
</svg>
